<svg width="74" height="70" viewBox="0 0 74 70" fill="none" xmlns="http://www.w3.org/2000/svg">
<path d="M73.6663 34.9667L65.533 25.6667L66.6663 13.3667L54.633 10.6333L48.333 0L36.9997 4.86667L25.6663 0L19.3663 10.6333L7.33301 13.3333L8.46634 25.6667L0.333008 34.9667L8.46634 44.2667L7.33301 56.6L19.3663 59.3333L25.6663 70L36.9997 65.1L48.333 69.9667L54.633 59.3333L66.6663 56.6L65.533 44.3L73.6663 34.9667ZM60.4997 39.9L58.633 42.0667L58.8997 44.9L59.4997 51.4L53.1663 52.8333L50.3663 53.4667L48.8997 55.9333L45.5997 61.5333L39.6663 58.9667L36.9997 57.8333L34.3663 58.9667L28.433 61.5333L25.133 55.9667L23.6663 53.5L20.8663 52.8667L14.533 51.4333L15.133 44.9L15.3997 42.0667L13.533 39.9L9.23301 35L13.533 30.0667L15.3997 27.9L15.0997 25.0333L14.4997 18.5667L20.833 17.1333L23.633 16.5L25.0997 14.0333L28.3997 8.43333L34.333 11L36.9997 12.1333L39.633 11L45.5663 8.43333L48.8663 14.0333L50.333 16.5L53.133 17.1333L59.4663 18.5667L58.8663 25.0667L58.5997 27.9L60.4663 30.0667L64.7663 34.9667L60.4997 39.9Z" fill="#388E3C"/>
<path d="M30.6335 40.8334L22.9001 33.0667L17.9668 38.0334L30.6335 50.7334L55.1001 26.2001L50.1668 21.2334L30.6335 40.8334Z" fill="#388E3C"/>
</svg>
